# xmcd CD database file
#
# Track frame offsets:
#	150
#	16963
#	33510
#	52934
#	66690
#	84274
#	98482
#	117630
#	145142
#
# Disc length: 2218 seconds
#
# Revision: 1
# Processed by: cddbd v1.5.1PL0 Copyright (c) Steve Scherf et al.
# Submitted via: CDex 1.60beta1-cs1
#
DISCID=7408a809
DTITLE=Amanda Rogers - Daily News Bonus Disc
DYEAR=2004
DGENRE=Vocal
TTITLE0=This Beauty
TTITLE1=Drive
TTITLE2=Puppet Girl
TTITLE3=Winter Dreams
TTITLE4=Footprints
TTITLE5=Insomnia
TTITLE6=Undertow
TTITLE7=Rewould In Time
TTITLE8=I Don't Believe
EXTD=YEAR: 2004
EXTT0=
EXTT1=
EXTT2=
EXTT3=
EXTT4=
EXTT5=
EXTT6=
EXTT7=
EXTT8=
PLAYORDER=
